<svg xmlns="http://www.w3.org/2000/svg" xmlns:xlink="http://www.w3.org/1999/xlink" width="47" height="44" viewBox="0 0 47 44">
    <defs>
        <path id="a" d="M.21 8.791c0 4.727 3.813 8.558 8.515 8.558 4.703 0 8.514-3.831 8.514-8.558 0-4.728-3.811-8.56-8.514-8.56C4.023.23.209 4.063.209 8.79z"/>
    </defs>
    <g fill="none" fill-rule="evenodd">
        <path fill="#585757" d="M8.828 34.016c1.147 0 1.977.804 2.439 1.588.238.404.441 1.343.186 2.14-.332 1.04-1.135 1.7-2.079 1.863l2.275 3.927H7.76c-.688-1.187-1.459-2.456-2.21-3.697H3.444v3.697H0v-9.518h8.828zM7.726 36.92c0-.456-.365-.663-.892-.663l-3.39.002v1.322h3.39c.56 0 .892-.211.892-.661z"/>
        <path fill="#585757" d="M17.154 37.19l-1.102 3.036h2.216l-1.114-3.036zm2.36-3.174l3.825 9.518h-3.68l-.4-.978h-4.082l-.351.978H11.27l4.026-9.518h4.218zM45.724 34.016v2.297h-6.8v1.338h5.6v2.28h-5.6v1.326h7.247v2.277H35.487v-9.518zM32.424 34.49c1.16.42 2.271 1.689 2.297 2.822l-3.84.255c-.012-.403-.459-.903-.828-1.065-.69-.38-1.938-.5-2.731.055-.944.688-1.046 1.606-.982 2.524-.037.798.51 1.687 1.009 1.956.574.366 2.039.635 2.932-.082.281-.242.534-.525.662-.93l3.88.297c-.167 1.499-1.428 2.659-2.73 3.038-2.04.675-5.893.716-7.932-.783-1.213-.863-1.825-3.079-1.558-4.524.076-1.173.981-3.09 2.552-3.603 1.709-.919 5.51-.826 7.27.04"/>
        <path fill="#E30620" d="M19.282 10.37l1.31 2.412 4.701.039 1.403-2.463-.817-1-5.985-.077z"/>
        <path stroke="#1D1D1B" stroke-linejoin="round" stroke-width=".57" d="M19.282 10.37l1.31 2.412 4.701.039 1.403-2.463-.817-1-5.985-.077z"/>
        <path fill="#E09A5B" d="M18.65 8.871l.432 1.109.557.03 2.185-.579 1.289-.02 1.66.122.772.16 1.062.35.32-.105.493-1.067-.433-.405-1.72-.476-1.908-.125-1.493.032-1.608.24-1.237.37z"/>
        <path stroke="#070603" stroke-width=".492" d="M18.65 8.871l.432 1.109.557.03 2.185-.579 1.289-.02 1.66.122.772.16 1.062.35.32-.105.493-1.067-.433-.405-1.72-.476-1.908-.125-1.493.032-1.608.24-1.237.37z"/>
        <path fill="#E09A5B" d="M23.542 10.16l.106 1.02 1.096.145.366-.957 1.017.273-.16 1.014 1.023.426.6-.832.911.529-.416.937.878.679.792-.648.747.75-.644.797.672.882.934-.418.526.916-.827.604.425 1.027 1.008-.162.273 1.024-.953.367.143 1.104 1.016.104v1.061l-1.016.105-.143 1.104.953.367-.273 1.023-1.008-.162-.425 1.028.827.603-.526.918-.934-.42-.672.883.644.798-.747.749-.792-.648-.878.678.416.938-.912.528-.6-.83-1.021.425.16 1.015-1.018.273-.366-.958-1.096.145-.104 1.02h-1.056l-.104-1.02-1.098-.145-.365.958-1.018-.273.161-1.015-1.022-.426-.6.831-.913-.528.417-.938-.878-.678-.793.648-.746-.749.646-.798-.676-.883-.931.42-.527-.918.826-.603-.424-1.028-1.008.162-.272-1.023.954-.367-.146-1.104-1.015-.105v-1.06l1.015-.107.146-1.102-.954-.366.272-1.025 1.008.162.424-1.027-.826-.604.527-.916.93.418.677-.882-.646-.797.746-.75.793.648.878-.679-.417-.937.913-.53.6.833 1.022-.426-.161-1.014 1.018-.273.365.957 1.098-.145.104-1.02z"/>
        <path stroke="#070603" stroke-linejoin="round" stroke-width=".427" d="M23.542 10.16l.106 1.02 1.096.145.366-.957 1.017.273-.16 1.014 1.023.426.6-.832.911.529-.416.937.878.679.792-.648.747.75-.644.797.672.882.934-.418.526.916-.827.604.425 1.027 1.008-.162.273 1.024-.953.367.143 1.104 1.016.104v1.061l-1.016.105-.143 1.104.953.367-.273 1.023-1.008-.162-.425 1.028.827.603-.526.918-.934-.42-.672.883.644.798-.747.749-.792-.648-.878.678.416.938-.912.528-.6-.83-1.021.425.16 1.015-1.018.273-.366-.958-1.096.145-.104 1.02h-1.056l-.104-1.02-1.098-.145-.365.958-1.018-.273.161-1.015-1.022-.426-.6.831-.913-.528.417-.938-.878-.678-.793.648-.746-.749.646-.798-.676-.883-.931.42-.527-.918.826-.603-.424-1.028-1.008.162-.272-1.023.954-.367-.146-1.104-1.015-.105v-1.06l1.015-.107.146-1.102-.954-.366.272-1.025 1.008.162.424-1.027-.826-.604.527-.916.93.418.677-.882-.646-.797.746-.75.793.648.878-.679-.417-.937.913-.53.6.833 1.022-.426-.161-1.014 1.018-.273.365.957 1.098-.145.104-1.02z"/>
        <path fill="#E09A5B" d="M14.5 20.273c0-4.728 3.814-8.56 8.516-8.56 4.703 0 8.514 3.832 8.514 8.56 0 4.726-3.81 8.558-8.514 8.558-4.702 0-8.515-3.832-8.515-8.558"/>
        <g transform="translate(14.291 11.482)">
            <mask id="b" fill="#fff">
                <use xlink:href="#a"/>
            </mask>
            <path fill="#E30620" d="M-1.376 18.946h20.203V-1.322H-1.376z" mask="url(#b)"/>
            <path stroke="#1D1D1B" stroke-linejoin="round" stroke-width=".57" d="M-1.376 18.946h20.203V-1.322H-1.376z" mask="url(#b)"/>
            <path fill="#FBE955" d="M4.777 17.93h7.895V-.3H4.777z" mask="url(#b)"/>
            <path stroke="#1D1D1B" stroke-linejoin="round" stroke-width=".57" d="M4.777 17.93h7.895V-.3H4.777z" mask="url(#b)"/>
        </g>
        <g>
            <path stroke="#070603" stroke-linejoin="round" stroke-width=".492" d="M14.5 20.273c0-4.728 3.814-8.56 8.516-8.56 4.703 0 8.514 3.832 8.514 8.56 0 4.726-3.81 8.558-8.514 8.558-4.702 0-8.515-3.832-8.515-8.558z"/>
            <path fill="#E09A5B" d="M27.096 26.773a.805.805 0 0 0 .18.055.538.538 0 0 0 .29-.055h.382a1.404 1.404 0 0 1-.18.182c-.296.214-.75.158-1.05-.016-.234.008-.117.293-.209.427-.087.29-.299.512-.565.676-.28.15-.682.188-.941-.04-.108-.118-.21-.323-.123-.48.054-.11.157-.197.29-.197.124-.007.25.047.297.165.11.205-.235.402.086.495.29.057.423-.18.548-.376.141-.265.057-.557-.023-.836h1.018zm-8.544 0a.106.106 0 0 0 .024.095c.093.087.259.087.368.031.09-.042.162-.085.22-.126h.453c-.009.156.012.212.032.294.064.249.156.653.492.653.15-.143.086-.395.306-.481.188-.064.344.03.416.197.054.22-.087.345-.211.465a.694.694 0 0 1-.636.03c-.42-.182-.538-.645-.626-1.02-.509.239-.48.248-.713.272-.196.024-.4-.088-.524-.212a.706.706 0 0 1-.104-.198h.503z"/>
            <path fill="#E09A5B" d="M27.566 26.773l.062-.03c.086-.252-.313-.315-.171-.615.068-.11.217-.197.366-.143.173.057.236.222.298.371a.712.712 0 0 1-.173.417h-.382zm-9.517 0a.479.479 0 0 1-.005-.29c.062-.118.164-.252.32-.238.094-.023.164.024.227.087.048.08.1.191.04.285-.026.043-.07.1-.079.156h-.503zm9.757-1.459c-.114.05-.23.092-.35.121-.52.11-.99.078-.99.078.104.422.199 1.051.63 1.26h-1.018c-.027-.094-.054-.186-.07-.275-.071-.25-.363-1.18-.363-1.18-.003 0-.008-.004-.012-.004h2.173zm-4.559 0a.61.61 0 0 1-.089.063c-.28.17-.607.117-.957.02a1.75 1.75 0 0 1-.22-.083h1.266zm-3.36 0c-.19.864-.256 1.25-.27 1.459h-.453c.29-.211.252-.433.353-.778l.16-.68h.21z"/>
            <path fill="#E09A5B" d="M24.745 21.993l.88 3.07c-.182-.068-.336-.213-.566-.5-.76-.96-1.254-2.19-1.254-2.57h.94zm-1.762-.321c.003.023.007.049.009.075h-.254c-.634-.004-1.113.014-1.752 0-.14-.007-.204-.008-.21-.075h-.89c.12.257.214.532.248.803.029.116.023.173.03.268.038.43-.041.687-.28 1.702l-.207.87h.21a19.26 19.26 0 0 1 .278-1.17s.106-.4.172-.662l.04-.142c.381.698.846 1.627 1.604 1.973h1.266c.184-.152.273-.381.278-.658 0-.174-.058-.28-.173-.41-.115-.127-.253-.217-.415-.158-.141.052-.291.184-.164.404.164.284.425-.118.563.215a.332.332 0 0 1-.089.356c-.122.102-.306.138-.584.12-1.1-.07-1.687-2.355-1.777-2.566-.164-.517-.193-.624-.193-.624l2.284.019s.074-.068.29.496c.39 1.122 1.484 2.535 2.365 2.806h2.174c.27-.117.513-.284.746-.484.18-.23.431-.417.47-.74.227-.409.156-1.016.055-1.473-.18-.431-.55-.826-1.027-.92-.39-.07-.807.039-1.072.284-.328.228-.377.636-.337 1.024.03.25.282.438.518.503.203.03.36-.048.493-.181.031-.11.069-.189.013-.299-.045-.064-.108-.08-.17-.11-.173-.063-.299.087-.431.164-.189-.032-.156-.227-.189-.361.008-.26.095-.504.298-.654.197-.157.479-.157.736-.126.29.173.581.362.643.732.124.102.054.283.117.409.103.74-.273 1.363-.775 1.772-.43.244-.933.522-1.457.355l-.988-3.539-.774.002.02.075h-.92c-.004-.025-.008-.049-.01-.075h-.782zm-4.674 0c.305 1.087.719 2.593.719 2.593-.392-.205-.118.18-.82.675-.365.23-.639.239-.94.158-.227-.095-.472-.35-.51-.55-.032-.191 0-.395.111-.53.104-.098.172-.167.407-.109.137.05.157.118.211.18.04.151.003.236-.164.339-.087.043-.185.054-.188.135-.009.221.226.314.384.39.297.06.54-.1.672-.32.134-.267.038-.57-.025-.868l-.608-2.093h.75z"/>
            <path fill="#E09A5B" d="M19.453 16.864c.26.632.183 1.132-.044 1.794-.217.635-.468.994-1.006 1.394-.175.13-.276.21-.482.287l-.655-2.37c.003-.684-.014-1.523.675-1.87.136-.068.218-.104.368-.126.558-.075.928.367 1.144.89zm-1.895 4.807l-.906-3.12c-.11-.307-.248-.505-.403-.574-.059-.024-.217-.034-.217-.098 0 0 .03-.502.89-.205.1-.126.028-.38.087-.614.196-.75.44-1.364 1.175-1.597.67-.215 1.313-.096 1.747.463.157.204.2.354.282.598.116.351.153.568.14.937-.015.42-.096.66-.259 1.047-.296.708-.93 1.212-1.236 1.528-.056.056.062.135.101.174.665.21 1.117.592 1.478 1.162l.128.256 1.848-7.517c.041-.237.064-.48.054-.736a3.003 3.003 0 0 0-.523-.613c.412-.07 1.627-.071 2.004-.024-.032.078-.437.436-.496.627-.075.237-.076.518-.045.784.078.133.652 2.36.652 2.36.315-.362.69-.784 1.003-1.008.586-.42 1.604-.97 2.761-.377.204.086.36.235.532.377.095.188.275.354.33.567 0 0 .097.213.122.345.078.413.116.836-.089 1.298-.187.422-.401.69-.793.878-.427.202-.832.193-1.206-.096-.317-.245-.498-.54-.431-.938.052-.299.172-.511.447-.637.237-.106.429-.092.666.017.127.058.348.219.27.541-.035.14-.158.21-.301.213-.127.003-.204-.057-.286-.154-.07-.085-.01-.207-.106-.264-.15-.086-.263.151-.313.316-.059.194.02.336.14.496.19.25.452.288.76.244.487-.067.687-.501.79-.983.074-.341 0-.587-.094-.89-.147-.472-.583-1-1.213-1.095-.823-.121-1.464.282-2.483 1.52-.206.25-.286.535-.286.535.026.14.614 2.264 1.17 4.257h-.774l-.813-3.082a2.76 2.76 0 0 0-.173.643c-.113.921.003 1.942.076 2.44h-.782c-.098-.766-.177-1.358-.087-2.18.122-1.089.673-2.233.673-2.233l-.95-3.394-.02.127c-.116.512-1.596 6.848-1.808 7.579a.278.278 0 0 0-.015.1h-.89c-.29-.629-.738-1.15-.848-1.218-.18-.033-.338-.243-.547-.142-.158.142-.491.275-.491.275.032.097.155.54.309 1.085h-.751z"/>
            <path stroke="#070603" stroke-width=".246" d="M24.745 21.993l.88 3.07c-.182-.068-.336-.213-.566-.5-.76-.96-1.254-2.19-1.254-2.57h.94zm-.05-.246h-.92c-.068-.461-.206-1.546-.086-2.515.027-.217.096-.447.173-.643l.834 3.158zm-5.242-4.883c.26.631.183 1.131-.044 1.794-.217.635-.468.995-1.006 1.394-.175.13-.276.21-.482.287l-.656-2.37c.004-.684-.013-1.523.677-1.87.135-.068.217-.104.368-.126.557-.075.928.367 1.143.891zm4.116.395s-.55 1.144-.672 2.233c-.094.847-.007 1.451.095 2.255h-.254c-.634-.004-1.113.014-1.752 0-.19-.008-.241-.011-.195-.176.212-.731 1.692-7.067 1.809-7.58l.02-.127.949 3.395zm.379-4.521c-.032.078-.437.435-.497.627-.073.237-.075.518-.044.784.078.133.652 2.36.652 2.36.315-.362.69-.784 1.003-1.008.586-.42 1.604-.97 2.761-.377.204.086.36.235.532.377.095.188.275.355.33.567 0 0 .097.213.122.346.078.412.116.835-.089 1.298-.187.421-.401.69-.793.877-.427.202-.832.193-1.206-.096-.317-.245-.497-.54-.43-.938.051-.3.171-.511.446-.638.237-.106.429-.091.666.018.127.058.348.219.27.54-.035.141-.158.212-.301.215-.127.002-.204-.058-.286-.155-.07-.086-.01-.207-.106-.264-.15-.086-.263.152-.313.316-.059.194.02.336.14.496.19.25.452.288.76.244.487-.067.687-.501.79-.983.075-.341 0-.586-.094-.89-.147-.472-.583-1-1.213-1.095-.823-.121-1.464.282-2.482 1.52-.207.25-.287.535-.287.535.05.267 2.158 7.795 2.158 7.795.524.167 1.027-.111 1.457-.355.502-.409.878-1.031.775-1.772-.063-.126.007-.307-.117-.41-.062-.369-.354-.558-.643-.73-.257-.032-.54-.032-.736.125-.203.15-.29.394-.298.654.033.134 0 .329.189.36.132-.076.258-.226.43-.163.063.03.126.046.171.11.056.11.018.189-.013.299-.133.133-.29.211-.493.181-.236-.065-.487-.252-.518-.503-.04-.388.009-.796.337-1.024.265-.245.681-.355 1.072-.283.478.093.847.488 1.027.92.101.456.172 1.063-.056 1.471-.038.324-.29.512-.47.741-.326.282-.688.503-1.095.605-.52.11-.99.078-.99.078.117.475.222 1.212.81 1.316.133.017.243-.033.351-.087.087-.25-.312-.314-.17-.614.068-.11.218-.197.366-.143.172.057.235.223.298.371-.016.262-.173.44-.352.599-.297.214-.75.157-1.05-.015-.234.007-.118.292-.21.426-.087.29-.3.511-.564.677-.282.149-.683.187-.942-.04-.108-.119-.21-.324-.123-.482.054-.11.156-.196.289-.196.125-.007.25.046.298.165.11.205-.235.402.086.496.29.057.423-.181.547-.377.188-.355-.024-.755-.092-1.11-.071-.25-.363-1.182-.363-1.182-.884-.263-1.987-1.684-2.378-2.809-.216-.564-.29-.496-.29-.496l-2.284-.02s.029.108.193.625c.09.21.677 2.495 1.777 2.567.278.017.462-.019.584-.12a.332.332 0 0 0 .09-.357c-.14-.333-.4.07-.564-.215-.127-.22.023-.352.164-.404.162-.06.3.031.415.159.115.13.174.235.173.409-.005.318-.122.573-.366.72-.281.172-.608.119-.958.022-.89-.253-1.407-1.293-1.824-2.057l-.04.142c-.066.261-.172.662-.172.662s-.106.392-.149.583c-.469 2.086-.42 2.126-.368 2.34.065.248.158.653.493.653.15-.144.087-.396.306-.482.188-.064.344.031.415.197.055.22-.085.345-.21.464a.694.694 0 0 1-.636.03c-.42-.181-.538-.644-.626-1.02-.508.24-.48.25-.713.273-.196.024-.4-.089-.524-.212-.095-.125-.165-.307-.11-.488.062-.119.165-.252.32-.238.095-.023.165.024.228.087.048.08.101.191.04.286-.04.07-.126.164-.055.25.093.087.26.087.368.032.532-.252.452-.488.573-.905l.367-1.55c.239-1.015.318-1.272.28-1.702-.007-.095-.001-.152-.03-.268-.118-.927-.94-1.928-1.096-2.022-.18-.033-.338-.243-.547-.142-.158.142-.491.275-.491.275a396.86 396.86 0 0 1 1.028 3.68c-.392-.206-.118.178-.82.674-.365.23-.639.239-.94.158-.227-.095-.472-.35-.51-.55-.032-.191 0-.395.111-.53.104-.098.172-.167.407-.109.137.05.157.118.211.18.04.151.003.236-.164.339-.087.043-.185.054-.188.135-.009.221.226.314.384.39.297.06.54-.1.672-.32.134-.267.038-.57-.025-.868l-1.514-5.214c-.11-.307-.248-.504-.403-.574-.059-.024-.217-.034-.217-.098 0 0 .03-.502.89-.205.1-.126.028-.38.087-.615.196-.75.44-1.363 1.175-1.596.67-.215 1.313-.095 1.747.463.157.203.2.354.282.598.116.351.154.568.14.937-.015.42-.096.66-.259 1.047-.296.709-.93 1.212-1.236 1.528-.055.057.062.135.1.174.666.21 1.118.592 1.48 1.162l.127.256 1.848-7.517c.041-.237.064-.48.054-.736a3.003 3.003 0 0 0-.523-.613c.412-.069 1.627-.072 2.004-.024z"/>
            <path fill="#070603" d="M23.327.003c.02.015.036.026.043.048l.004.344c.106.02.268-.046.316.057l-.004.53c-.008.025-.035.04-.058.046l-.319.004c.018.113.038.241.058.351a.73.73 0 0 1 .21.255h.033c.109-.104.225-.115.372-.1.12.032.237.13.277.242a.44.44 0 0 1 .4-.128c.147.026.27.16.306.298.028.01.057.015.083.037a.413.413 0 0 1 .45.048.418.418 0 0 1 .124.44.42.42 0 0 1 .426.018.603.603 0 0 1 .098.1.424.424 0 0 1 .288-.198.382.382 0 0 1 .423.274.425.425 0 0 1 .376-.115.41.41 0 0 1 .275.237.408.408 0 0 1 .373-.053.383.383 0 0 1 .235.289.43.43 0 0 1 .404.018c.117.08.183.231.17.355a.405.405 0 0 1 .445.113c.08.102.1.228.075.346.12-.009.26.02.352.132.108.13.132.276.057.429.13.013.26.088.324.208a.404.404 0 0 1-.06.449l-.024.023a.42.42 0 0 1 .24.289c.017.12-.015.274-.124.363l-.07.052c.063.01.145.012.184.071.087.146.02.317-.047.45a2.143 2.143 0 0 1-.55.594c-.002.248-.14.557-.399.689-.11.05-.268.057-.362-.035V7.57h-.019c-.344.4-.851.651-1.382.625.173.058.368.163.42.354a.408.408 0 0 1-.08.317c-.261.249-.582-.037-.88-.081-2.269-.663-4.4-.722-6.709-.221-.49.117-.937.25-1.413.4a.333.333 0 0 1-.306-.109c-.09-.126-.114-.256-.042-.39.081-.151.247-.22.385-.27-.44.01-.912-.143-1.236-.483l-.156-.146c-.09.092-.239.101-.346.052-.272-.122-.429-.45-.429-.706-.258-.206-.553-.482-.635-.815-.005-.065-.012-.16.044-.222a.218.218 0 0 1 .174-.066c-.008-.025-.054-.038-.071-.06a.416.416 0 0 1-.117-.331.401.401 0 0 1 .24-.312.44.44 0 0 1-.114-.393.411.411 0 0 1 .22-.26l.138-.033c-.06-.115-.054-.213-.003-.343a.392.392 0 0 1 .312-.218l.094.003a.422.422 0 0 1 .07-.339.406.406 0 0 1 .395-.137c.013.005.038.005.053.018 0-.128.038-.231.131-.32a.386.386 0 0 1 .353-.092l.094.041c.01-.109.099-.215.196-.276a.397.397 0 0 1 .416.034.408.408 0 0 1 .27-.237.405.405 0 0 1 .371.115.432.432 0 0 1 .258-.26.387.387 0 0 1 .349.057.5.5 0 0 1 .114.127.399.399 0 0 1 .323-.166c.066.002.14.01.198.047a.437.437 0 0 1 .09-.404.41.41 0 0 1 .392-.12c.056.015.104.054.152.01l.027-.01a.41.41 0 0 1 .326-.304.432.432 0 0 1 .379.134.404.404 0 0 1 .658-.137c.048-.017.057-.085.093-.12a.66.66 0 0 1 .137-.13l.062-.355-.015-.013-.303.003c-.044-.012-.069-.047-.069-.084l.007-.495c.056-.098.204-.037.309-.054.016-.114-.002-.228.013-.357L22.717 0l.61.003z"/>
            <path fill="#E09A5B" d="M23.215.494c.052.113.214.044.32.063l-.006.31-.347.006c-.047.03-.054.076-.043.123l.053.305a.578.578 0 0 0-.343-.003c0-.12.056-.263.041-.387l-.037-.038-.351-.006v-.31c.104-.023.281.054.318-.067V.154h.39l.005.34zM23.427 1.69a.462.462 0 0 1-.512.656.466.466 0 0 1-.347-.358c-.025-.17.033-.371.196-.474a.465.465 0 0 1 .476-.017c.08.04.14.115.187.193M22.364 1.794c.05.077.047.172.016.245-.048.084-.134.145-.236.137a.258.258 0 0 1-.216-.128.253.253 0 0 1 .037-.286c.067-.075.178-.089.255-.073a.283.283 0 0 1 .144.105M24.11 1.812a.261.261 0 0 1-.01.251.258.258 0 0 1-.237.113c-.097 0-.183-.074-.221-.17-.003-.071-.02-.176.054-.24a.264.264 0 0 1 .272-.072c.057.026.109.06.141.118M21.693 1.937c.041.073.025.15-.005.226-.049.096-.166.138-.263.128a.272.272 0 0 1-.211-.2c-.005-.075.013-.175.08-.23.082-.061.176-.087.264-.048.059.027.1.064.135.124M24.784 1.912c.046.092.057.196-.008.278-.068.08-.18.125-.282.091a.258.258 0 0 1-.174-.2.273.273 0 0 1 .08-.221c.125-.103.286-.08.384.052M21.018 2.21c.046.105.054.194-.025.291a.267.267 0 0 1-.267.076.261.261 0 0 1-.178-.207c-.003-.087.031-.195.124-.245.12-.067.261-.026.346.085M25.391 2.143c.083.06.098.164.094.232-.003.074-.074.163-.152.193a.268.268 0 0 1-.267-.041c-.082-.07-.093-.172-.075-.257a.268.268 0 0 1 .223-.179c.052.004.123.008.177.052M23.62 2.37c.25.616.232 1.223.22 1.8l-.034.469a.53.53 0 0 0-.318-.105c.047-.75.047-1.425-.043-2.188.022-.013.04-.06.075-.051.04-.013.086.038.1.075M22.575 2.513a11.686 11.686 0 0 0-.03 2.03.488.488 0 0 0-.34.103c-.018-.7-.052-1.538.282-2.3a.152.152 0 0 1 .048-.045c.108.028.027.146.04.212M22.22 2.568c-.75.103-1.507.575-1.783 1.333-.124.33-.195.697-.21 1.045-.121-.055-.21-.043-.337-.01.06-.912.551-2 1.517-2.375.287-.114.599-.157.873-.149l-.06.156zM25.742 3.575c.234.43.377.899.402 1.36-.114-.032-.222-.044-.33.01l-.01-.01c-.027-.728-.283-1.565-.997-2.003a2.804 2.804 0 0 0-.94-.355c-.015-.057-.04-.115-.05-.168.749-.022 1.562.44 1.925 1.166M19.753 2.678c.037.09.028.155-.023.24a.238.238 0 0 1-.246.08.242.242 0 0 1-.168-.2.237.237 0 0 1 .14-.23.234.234 0 0 1 .297.11M26.64 2.607a.254.254 0 0 1 .076.198c-.014.075-.063.16-.146.187a.238.238 0 0 1-.243-.05c-.061-.075-.085-.15-.053-.24a.24.24 0 0 1 .186-.151.272.272 0 0 1 .18.056M20.374 2.631c.054.045.09.113.097.178 0 .082-.04.192-.135.236a.272.272 0 0 1-.265-.012.267.267 0 0 1-.097-.28.27.27 0 0 1 .193-.17.299.299 0 0 1 .207.048M25.981 2.635c.049.04.077.103.09.166a.255.255 0 0 1-.116.235.271.271 0 0 1-.292-.014.252.252 0 0 1-.09-.259c.028-.104.12-.167.217-.185.053-.012.138.018.191.057M23.243 2.767c.065.127.043.216-.041.326-.079.06-.169.089-.263.06-.09-.022-.156-.114-.18-.192.003-.067-.011-.134.038-.203a.271.271 0 0 1 .278-.114c.067.013.13.062.168.123M19.092 2.824c.032.097.038.163-.024.256-.044.054-.11.073-.165.085-.056.007-.124-.029-.17-.062a.255.255 0 0 1-.07-.198c.011-.08.07-.167.154-.19.104-.02.213.004.275.109M27.304 2.767c.053.06.088.155.06.237a.247.247 0 0 1-.198.161c-.06-.002-.125-.012-.177-.062-.08-.1-.093-.193-.029-.302a.258.258 0 0 1 .156-.095c.07 0 .14.011.188.061"/>
            <path fill="#E30620" d="M22.172 2.744c-.166.713-.153 1.327-.121 2.017l.018.084a.443.443 0 0 0 .053.41c-.135-.058-.272-.024-.396.052a.415.415 0 0 0-.173.307c-.026.173.141.367.083.56-.07.233-.151.434.029.655a.483.483 0 0 0 .159.108 1.835 1.835 0 0 1-.62.064.418.418 0 0 0 .165-.4c-.018-.194-.186-.327-.206-.528.011-.215.072-.505-.198-.652-.152-.075-.302-.08-.447.02-.037.029-.074.073-.118.112.073-.158.087-.34-.016-.48.007-.67.218-1.57.919-1.993.268-.18.574-.271.869-.336M25.414 3.887c.171.393.222.785.239 1.19-.112.153-.09.312-.017.482-.085-.112-.236-.208-.359-.195-.16.005-.33.1-.39.26-.096.246.058.414-.073.635-.12.177-.211.403-.106.604.03.055.073.103.122.138-.192.003-.423.002-.646-.073a.448.448 0 0 0 .277-.258c.088-.23-.096-.408-.067-.653.077-.245.168-.506-.072-.717a.407.407 0 0 0-.403-.057.437.437 0 0 0 .029-.393c.07-.67.103-1.418-.034-2.096.624.12 1.244.506 1.5 1.133"/>
            <path fill="#E09A5B" d="M18.45 2.932a.246.246 0 0 1 .067.227.247.247 0 0 1-.117.147c-.066.042-.178.025-.241-.019-.079-.049-.102-.166-.09-.23a.26.26 0 0 1 .18-.182c.067-.004.143.002.201.057M27.948 3.004c.04.095.026.172-.04.254-.066.059-.145.091-.238.06a.24.24 0 0 1-.156-.174c-.018-.072.023-.164.075-.216a.262.262 0 0 1 .23-.043c.06.022.094.066.129.119M17.897 3.215a.239.239 0 0 1 .028.27c-.035.06-.114.114-.183.114a.244.244 0 0 1-.226-.137c-.02-.076-.026-.128.009-.198.042-.061.105-.12.187-.123.053.001.14.022.185.074M28.505 3.259c.05.065.028.181-.013.25-.06.078-.15.096-.24.084a.24.24 0 0 1-.17-.175.269.269 0 0 1 .038-.18.27.27 0 0 1 .173-.097.238.238 0 0 1 .212.118M20.03 3.273c.052.095.036.178-.015.27a.272.272 0 0 1-.155.097.277.277 0 0 1-.248-.088c-.06-.09-.074-.181-.02-.285a.284.284 0 0 1 .188-.116.268.268 0 0 1 .25.122M26.448 3.276c.036.087.042.16-.004.248a.269.269 0 0 1-.235.123c-.097-.017-.194-.072-.228-.175-.024-.105 0-.173.067-.25a.265.265 0 0 1 .23-.069.27.27 0 0 1 .17.123M23.243 3.462c.048.109.058.18-.01.282-.067.086-.154.131-.258.109a.248.248 0 0 1-.196-.145c-.029-.093-.038-.181.027-.27.064-.09.181-.114.273-.098.063.015.125.06.164.122M17.121 5.086a3.342 3.342 0 0 0-.13.5c-.037-.001-.094-.018-.132-.004-.107-.609.342-1.238.85-1.61a3.47 3.47 0 0 1 1.269-.571c-.75.373-1.58.867-1.857 1.685M29.174 5.176c.022.12.037.285.004.406l-.136.005c-.075-.69-.593-1.4-1.231-1.767-.247-.145-.496-.293-.753-.42.898.207 1.868.796 2.116 1.776M19.03 5.135c-.151.044-.227.178-.263.32-.004.13-.014.255.107.358l-.145.01c-.228-.723-.185-1.534.364-2.24l.105-.101c-.226.542-.234 1.095-.169 1.653M27.304 5.828l-.142-.015c.13-.13.134-.302.08-.452a.428.428 0 0 0-.235-.233c.064-.52.051-1.114-.17-1.647.626.654.723 1.575.467 2.347M17.366 3.607a.218.218 0 0 1 .04.243c-.02.062-.077.103-.135.132-.086.022-.185.005-.244-.062a.243.243 0 0 1-.056-.19.245.245 0 0 1 .136-.178c.083-.029.193-.02.259.055M28.995 3.593a.243.243 0 0 1 .064.224.246.246 0 0 1-.107.144.26.26 0 0 1-.175.024.235.235 0 0 1-.164-.18.226.226 0 0 1 .04-.174.246.246 0 0 1 .176-.098c.052 0 .117.019.166.06"/>
            <path fill="#E30620" d="M18.569 5.85a.402.402 0 0 0-.26.3c-.047.187.09.395.189.58.056.22-.084.43.084.642.084.1.206.155.321.162-.354.144-.68.178-1.01-.03a.384.384 0 0 0 .285-.194c.11-.215-.039-.44-.184-.627-.033-.067.012-.158.01-.222-.006-.16-.047-.42-.252-.524a.428.428 0 0 0-.48.095c.032-.114-.02-.279-.127-.369.076-.711.558-1.351 1.184-1.716.163-.1.337-.198.508-.287a2.552 2.552 0 0 0-.268 2.19M28.812 5.294c.033.116.061.253.079.369a.4.4 0 0 0-.128.372.435.435 0 0 0-.403-.127c-.21.04-.292.28-.326.444-.028.111.048.242-.002.35-.153.18-.27.399-.178.606.055.113.18.185.288.193-.19.147-.447.167-.64.141a1.61 1.61 0 0 1-.377-.108.418.418 0 0 0 .356-.21c.122-.172.005-.396.047-.565.105-.23.294-.462.155-.724a.435.435 0 0 0-.214-.184c.23-.729.167-1.498-.27-2.191.695.351 1.401.847 1.613 1.634"/>
            <path fill="#E09A5B" d="M19.772 3.92c.053.082.04.19-.01.265a.27.27 0 0 1-.281.1.262.262 0 0 1-.179-.199.247.247 0 0 1 .117-.25.256.256 0 0 1 .353.084M26.644 3.853a.258.258 0 0 1 .09.225c-.015.085-.084.184-.174.206a.269.269 0 0 1-.258-.067.25.25 0 0 1-.047-.283c.054-.075.116-.126.205-.137a.316.316 0 0 1 .184.056M23.249 4.15c.045.105.036.176-.01.27a.278.278 0 0 1-.164.118.296.296 0 0 1-.207-.042.304.304 0 0 1-.108-.164.276.276 0 0 1 .041-.205.289.289 0 0 1 .204-.112c.09-.006.195.05.244.134M16.897 4.062c.074.06.104.154.088.23-.019.099-.108.17-.206.184-.06-.005-.126-.012-.175-.06a.242.242 0 0 1-.066-.227.256.256 0 0 1 .184-.17.266.266 0 0 1 .175.043M29.427 4.077c.068.065.09.152.065.239a.233.233 0 0 1-.205.16c-.05-.006-.13-.016-.174-.07a.222.222 0 0 1-.048-.25c.03-.079.102-.114.174-.137.066-.005.138.008.188.058M19.696 4.686c.023.088.004.148-.038.219-.059.069-.157.125-.243.101-.082-.01-.158-.077-.2-.156a.258.258 0 0 1 .017-.208.268.268 0 0 1 .22-.13.27.27 0 0 1 .244.174M26.814 4.66a.256.256 0 0 1-.019.231.294.294 0 0 1-.216.118.25.25 0 0 1-.229-.15.25.25 0 0 1 .024-.24.263.263 0 0 1 .202-.108c.094 0 .2.057.238.15M16.642 4.713a.235.235 0 0 1-.061.274.233.233 0 0 1-.214.043c-.068-.025-.142-.094-.151-.162-.025-.075.003-.157.06-.221.067-.06.158-.083.236-.053a.26.26 0 0 1 .13.12M29.81 4.723a.241.241 0 0 1-.022.217.24.24 0 0 1-.236.095.251.251 0 0 1-.155-.112c-.036-.101-.036-.183.039-.27.081-.07.158-.091.254-.054.055.029.095.07.12.124M23.76 4.875c.143.297-.235.53-.32.793a.62.62 0 0 0-.596-.149.613.613 0 0 0-.25.16c-.107-.202-.248-.39-.355-.588a.3.3 0 0 1 .037-.257c.255-.273.573.063.85-.012.217-.056.48-.22.635.053"/>
            <path fill="#070603" d="M23.036 5.086c.134-.026.268-.103.404-.08-.186.04-.336.268-.535.174-.12-.052-.222-.151-.348-.193.157-.03.315.119.48.1"/>
            <path fill="#E09A5B" d="M20.202 5.118c.235.223-.056.502-.086.752l-.014.052a.59.59 0 0 0-.612.053l-.113.113c-.13-.16-.29-.271-.427-.44a.295.295 0 0 1 .054-.316c.187-.145.397.003.598-.073.192-.067.386-.285.6-.14M26.67 5.28c.108-.015.278-.037.375.066.064.082.08.183.051.283-.131.167-.286.279-.437.459a.595.595 0 0 0-.62-.21l-.103.044c-.055-.214-.169-.418-.197-.632a.257.257 0 0 1 .142-.199c.294-.102.503.28.79.19M16.514 5.351c.049.072.034.155 0 .231-.05.077-.152.128-.242.11a.246.246 0 0 1-.18-.186.254.254 0 0 1 .043-.178c.06-.077.145-.098.238-.085a.23.23 0 0 1 .141.108M29.914 5.351a.214.214 0 0 1 0 .231.255.255 0 0 1-.19.113.247.247 0 0 1-.223-.15.234.234 0 0 1 .061-.245.212.212 0 0 1 .202-.057c.056.006.12.053.15.108"/>
            <path fill="#070603" d="M20.038 5.275c-.156.089-.277.363-.5.312-.12-.031-.24-.092-.35-.094.186-.089.377.069.574-.08.09-.05.167-.135.276-.138M26.448 5.481c.122.005.273-.047.4.012-.192.007-.358.165-.533.066-.121-.08-.198-.208-.323-.284.17.01.29.188.456.206"/>
            <path fill="#E09A5B" d="M24.282 5.496c.099.214-.08.428-.064.648.035.195.217.458-.025.6-.21.12-.398-.088-.587-.131l-.154-.119a.62.62 0 0 0 .102-.651c.049-.09.097-.191.16-.28.141-.074.287-.247.451-.169a.27.27 0 0 1 .117.102M22.317 5.568l.165.269c-.08.19-.077.473.103.652-.133.173-.378.202-.567.303a.273.273 0 0 1-.194-.037c-.227-.205-.006-.455-.008-.682.002-.188-.206-.428-.03-.605.077-.06.18-.102.269-.065l.262.165zM20.984 5.658c.088.228-.065.448.088.667.09.148.21.342.08.504-.19.178-.432.003-.639.01l-.163-.08c.017-.044.04-.097.057-.147a.597.597 0 0 0-.165-.591l.031-.104c.167-.113.314-.474.57-.373a.29.29 0 0 1 .141.114M25.767 5.927l.027.09c-.216.228-.225.473-.118.713l.016.017c-.184.148-.426.12-.62.163-.084.008-.165-.046-.212-.11-.152-.287.251-.526.174-.801-.013-.152-.057-.317.109-.431a.284.284 0 0 1 .268-.006l.356.365z"/>
            <path fill="#070603" d="M24.032 6.116c.02.14.118.288.081.412-.04-.171-.228-.3-.183-.488.038-.136.158-.25.202-.391.027.158-.107.33-.1.467"/>
            <path fill="#E30620" d="M23.343 5.809a.435.435 0 0 1 .047.487.45.45 0 0 1-.33.217.45.45 0 0 1-.361-.143c-.12-.151-.134-.297-.061-.477a.434.434 0 0 1 .361-.235c.107 0 .251.045.344.151"/>
            <path fill="#070603" d="M22.102 6.197c-.049.131-.16.24-.2.372-.027-.173.133-.332.096-.5-.041-.114-.096-.264-.08-.378.047.176.25.326.184.506"/>
            <path fill="#E09A5B" d="M17.06 5.809c.127.201-.013.41-.043.624l-.036.118c-.114-.038-.261-.026-.348.081a.304.304 0 0 0-.06.098c-.216-.164-.45-.404-.519-.69.01-.016 0-.04.01-.055.102-.064.213.08.309.017.177-.08.326-.24.517-.265.06.007.13.023.17.072M29.863 5.98a.127.127 0 0 1 .096-.005c.033.018.016.075.013.103-.085.267-.303.487-.508.656a.323.323 0 0 0-.193-.193.456.456 0 0 0-.214.01 2.194 2.194 0 0 1-.134-.643c.024-.077.094-.158.175-.166.294-.029.486.382.765.238"/>
            <path fill="#070603" d="M20.876 6.346c.044.112.16.204.155.324-.09-.161-.33-.268-.31-.479.018-.132.092-.233.098-.378.089.174-.06.357.057.533M25.281 6.346c-.073.127-.22.204-.28.328.016-.178.192-.296.206-.47.003-.115-.05-.268.01-.385-.003.18.167.333.064.527M16.906 5.951c.01.126-.014.313-.032.458-.025-.113-.01-.232-.071-.34-.099.076-.155.22-.305.193-.109-.025-.201-.12-.312-.108.096-.092.245.035.362 0 .11-.07.193-.203.32-.26.024.001.035.033.038.057M29.54 6.164c.102-.01.209-.085.31-.01-.174-.018-.344.242-.503.033l-.1-.114c-.036-.015-.034.038-.047.057l-.037.274c-.02-.136-.053-.316-.028-.477l.02-.033c.161.058.219.225.384.27"/>
            <path fill="#E09A5B" d="M19.216 6.158l.077.076a.59.59 0 0 0 .088.591.569.569 0 0 0 .158.132.43.43 0 0 1-.101.145L19 7.36a.292.292 0 0 1-.244-.044c-.233-.201.04-.48-.145-.721-.091-.161-.222-.355-.091-.52.21-.207.472.05.695.084M27.542 6.116c.116.238-.18.454-.182.69-.015.181.084.351-.086.515-.267.176-.455-.146-.674-.22a.353.353 0 0 1-.101-.144.602.602 0 0 0 .288-.507c.027-.084-.117-.212.027-.292l.5-.169a.253.253 0 0 1 .228.127"/>
            <path fill="#E30620" d="M20.152 6.164c.13.151.142.325.06.49a.44.44 0 0 1-.3.22.43.43 0 0 1-.384-.13.458.458 0 0 1-.105-.387.434.434 0 0 1 .268-.307.419.419 0 0 1 .461.114M26.499 6.15a.447.447 0 0 1 .113.395.44.44 0 0 1-.315.321.43.43 0 0 1-.457-.18.43.43 0 0 1-.017-.44.454.454 0 0 1 .352-.225.48.48 0 0 1 .324.13"/>
            <path fill="#E09A5B" d="M17.775 6.178c.077.15.073.315.041.462.02.217.34.382.2.628-.112.108-.346.061-.307.259.102.172.306.234.473.27.568.112 1.214-.263 1.585-.76h.16c.028.2.054.422-.105.606-.569.418-1.257.501-1.866.234-.212-.106-.378-.285-.553-.447.072-.243-.033-.588-.266-.784.11-.191.131-.525.408-.583a.227.227 0 0 1 .23.115M28.69 6.192c.11.121.11.307.205.448-.215.193-.34.535-.263.79-.272.282-.605.549-.996.585-.474.058-1.028-.053-1.436-.387-.142-.184-.129-.392-.085-.596.04.002.11.017.155.005.4.542 1.1.91 1.702.733.14-.05.317-.121.358-.274.006-.054-.033-.103-.078-.128-.098-.045-.225-.035-.263-.156-.07-.23.263-.386.225-.633a.516.516 0 0 1 .086-.453c.064-.055.12-.075.2-.057.076.01.142.066.19.123"/>
            <path fill="#070603" d="M18.958 6.797c-.028.104-.097.244-.088.335-.082-.184.046-.355-.043-.506-.054-.12-.17-.22-.175-.354.088.16.378.304.306.525M27.176 6.724c-.003.112.05.28-.01.403.015-.178-.196-.368-.047-.557.08-.107.192-.18.264-.298-.007.165-.186.284-.207.452M17.662 6.692c.067.15.201.278.231.44-.139-.169-.335-.275-.348-.482-.004-.119.047-.242.01-.365.098.134.059.258.107.407M28.402 6.863l-.252.263c.03-.182.204-.326.244-.51.02-.1.003-.238.088-.33-.055.204.102.385-.08.577"/>
            <path fill="#E09A5B" d="M22.872 6.661c-.228.301-.483.587-.827.754-.4.149-.781.138-1.189.081-.294-.066-.596-.226-.747-.518l.1-.065c.692.267 1.366.387 2.034.035.18-.097.356-.204.526-.325l.103.038zM25.083 7.132c.26-.045.511-.131.75-.22l.095.066c-.385.64-1.152.595-1.769.498-.421-.111-.753-.498-1-.815l.108-.039c.537.404 1.195.656 1.816.51M17.22 7.04c.04.135.065.26 0 .39-.024.036-.067.05-.108.06a1.004 1.004 0 0 0-.333-.75c-.007-.006-.02-.002-.013-.016.056-.041.101-.032.168-.013.146.063.221.194.285.33M29.271 6.73c-.207.168-.332.45-.357.7l.01.06c-.057-.003-.095-.04-.124-.084-.073-.194.013-.421.142-.577.072-.079.19-.166.301-.123.009.012.022.01.028.024M23.704 7.44c-.078.003-.109-.007-.19-.01l-.99-.005-.003.005-.184.01c.244-.181.483-.427.681-.7.197.267.407.508.686.7"/>
            <path fill="#E30620" d="M29.078 7.41c.03-.183.114-.368.24-.515.024.162-.062.415-.24.515M16.954 7.41a.553.553 0 0 1-.234-.51c.123.148.21.317.234.51"/>
            <path fill="#E09A5B" d="M20.683 7.618a7.97 7.97 0 0 0-.78.17c.158-.13.216-.348.205-.528.152.173.361.293.575.358M26.128 7.783c-.231-.053-.505-.118-.771-.168.202-.052.414-.178.571-.356-.01.166.048.396.2.524M24.072 7.622c.256.064.497.075.782.081a9.673 9.673 0 0 1 2.57.704c.084.04.177.128.174.218a.226.226 0 0 1-.066.15.25.25 0 0 1-.191.024c-2.345-.802-4.614-.91-6.967-.462-.56.114-1.146.276-1.711.472-.044-.004-.123-.007-.165-.036a.203.203 0 0 1-.051-.207c.058-.136.213-.183.34-.229a9.186 9.186 0 0 1 2.488-.638c.232-.009.456-.015.673-.077.648-.04 1.454-.045 2.124 0"/>
            <path fill="#070603" d="M23.327 8.492a.361.361 0 0 1-.06.381c-.075.086-.198.113-.296.105-.122-.01-.232-.112-.279-.226-.023-.112-.025-.188.035-.298a.37.37 0 0 1 .263-.161.362.362 0 0 1 .337.199M22.417 8.506c.083.114.065.22.013.33-.207.235-.513.136-.755.2-.318.05-.645.082-.962.154a.462.462 0 0 1-.354-.122c-.074-.1-.08-.19-.03-.292.176-.253.49-.211.725-.281.35-.054.685-.11 1.029-.121a.453.453 0 0 1 .334.132M25.47 8.595c.118.04.234.133.263.255a.284.284 0 0 1-.046.206c-.26.291-.669.02-.968.031a12.597 12.597 0 0 0-.865-.104c-.086-.02-.2-.057-.253-.157-.052-.072-.042-.153-.03-.236.05-.149.222-.207.353-.217a8.93 8.93 0 0 1 1.547.222"/>
            <path fill="#FBE955" d="M23.185 8.566c.022.077.02.124-.026.19a.193.193 0 0 1-.216.053.194.194 0 0 1-.108-.172c.001-.08.034-.118.099-.165.044-.016.1-.026.145-.007.05.015.09.054.106.101"/>
            <path fill="#E30620" d="M22.31 8.634a.203.203 0 0 1-.006.103c-.041.068-.121.086-.179.096-.469.036-.935.098-1.41.197a.322.322 0 0 1-.214-.047c-.032-.024-.056-.076-.04-.114.11-.17.294-.14.456-.188.4-.064.781-.126 1.162-.146.072.007.182.007.23.1M25.458 8.762a.24.24 0 0 1 .116.106c.017.037-.005.091-.033.11-.06.049-.123.046-.202.053a14.704 14.704 0 0 0-1.452-.205c-.06-.007-.15-.047-.164-.118 0-.035-.006-.078.028-.113.16-.1.28-.044.446-.046.396.044.851.102 1.26.213"/>
            <path fill="#070603" d="M20.069 8.873c.091.096.116.25.063.374a.341.341 0 0 1-.52.138.36.36 0 0 1-.131-.312.36.36 0 0 1 .173-.264.35.35 0 0 1 .415.064M26.518 8.95a.365.365 0 0 1-.02.355.352.352 0 0 1-.328.146.345.345 0 0 1-.229-.548.36.36 0 0 1 .37-.124c.089.027.158.087.207.17"/>
            <path fill="#FBE955" d="M19.955 8.983c.043.053.046.097.046.16a.215.215 0 0 1-.107.138c-.072.019-.162.014-.216-.054-.05-.078-.056-.147-.006-.229a.189.189 0 0 1 .283-.015M26.345 8.978c.036.043.06.099.055.152-.011.058-.045.12-.103.145-.08.03-.153.021-.22-.04-.054-.081-.06-.145-.015-.228.025-.047.078-.065.124-.08a.192.192 0 0 1 .159.051"/>
            <path fill="#070603" d="M19.32 9.19c.063.106.076.22.03.331-.153.15-.37.258-.57.236a.368.368 0 0 1-.215-.264.314.314 0 0 1 .103-.292c.133-.11.314-.18.475-.142a.34.34 0 0 1 .177.131M27.444 9.299a.362.362 0 0 1-.036.346.449.449 0 0 1-.162.119c-.173.017-.361-.082-.513-.19-.099-.1-.085-.218-.046-.338a.342.342 0 0 1 .274-.19c.171.001.38.081.483.253M23.511 9.073c.07.016.17.011.255.014.8.047 1.633.13 2.427.458.26.136.56.2.799.364.093.078.155.212.133.327-.013.094-.049.184-.147.244-.135.06-.226.076-.37.015-1.13-.455-2.253-.604-3.393-.62-1.32-.029-2.617.144-3.884.652-.107.013-.275-.002-.358-.122-.072-.111-.094-.26-.03-.373.132-.236.416-.255.63-.369.95-.468 1.983-.542 2.952-.59h.986z"/>
            <path fill="#E30620" d="M19.174 9.261c.042.053.058.123.037.176a.743.743 0 0 1-.361.17c-.045-.006-.085-.042-.108-.08-.029-.058-.024-.101-.01-.157.099-.128.312-.224.442-.109M27.304 9.37c.01.061.016.09-.006.148a.233.233 0 0 1-.094.088c-.144-.01-.265-.083-.377-.166-.023-.043-.008-.075 0-.126.034-.053.074-.104.143-.11.126.002.247.06.334.165"/>
            <path fill="#E09A5B" d="M26.623 9.906c.13.041.306.095.347.253a.198.198 0 0 1-.053.166.236.236 0 0 1-.22.033c-1.623-.663-3.3-.704-4.85-.594-.834.067-1.742.295-2.565.607a.222.222 0 0 1-.168-.046.214.214 0 0 1-.039-.204c.118-.205.355-.198.533-.297 1.086-.539 2.23-.568 3.35-.597 1.24.02 2.459.058 3.665.68"/>
        </g>
    </g>
</svg>
