<?xml version="1.0" encoding="utf-8"?>
<!-- Generator: Adobe Illustrator 16.0.0, SVG Export Plug-In . SVG Version: 6.00 Build 0)  -->
<!DOCTYPE svg PUBLIC "-//W3C//DTD SVG 1.1//EN" "http://www.w3.org/Graphics/SVG/1.1/DTD/svg11.dtd">
<svg version="1.1" id="Layer_1" xmlns="http://www.w3.org/2000/svg" xmlns:xlink="http://www.w3.org/1999/xlink" x="0px" y="0px"
	 width="229.488px" height="89.996px" viewBox="0 0 229.488 89.996" enable-background="new 0 0 229.488 89.996"
	 xml:space="preserve">
<g>
	<path fill="#0094D9" d="M26.665,30.103c2.706,0,4.999,0.68,6.891,2.05c0.992,0.737,1.686,1.567,2.086,2.517
		c0.396,0.939,0.596,2.238,0.596,3.88l-0.045,3.483c0,2.412,0.162,3.974,0.508,4.691c0.174,0.346,0.334,0.563,0.489,0.654
		c0.155,0.101,0.487,0.18,0.984,0.261c0.494,0.077,0.749,0.403,0.749,0.984c0,0.744-0.3,1.522-0.902,2.331
		c-0.597,0.809-1.367,1.485-2.321,2.033c-1.171,0.684-2.394,1.025-3.665,1.025c-1.633,0-2.928-0.561-3.88-1.678
		c-0.323-0.412-0.623-0.611-0.912-0.611c-0.308,0-0.716,0.195-1.232,0.586c-1.562,1.132-3.326,1.703-5.298,1.703
		c-2.039,0-3.691-0.436-4.954-1.311c-0.821-0.571-1.478-1.322-1.962-2.248c-0.479-0.929-0.723-1.897-0.723-2.911
		c0-1.622,0.651-3.049,1.965-4.293c2.034-1.964,5.086-2.95,9.149-2.965c0.908,0,1.472-0.089,1.704-0.27
		c0.234-0.183,0.348-0.594,0.348-1.249c0-1.651-0.17-2.846-0.513-3.588c-0.337-0.731-0.899-1.107-1.678-1.107
		c-0.466,0-0.882,0.138-1.255,0.422c-0.358,0.278-0.814,0.791-1.357,1.545C20.052,38.012,18.601,39,17.088,39
		c-0.763,0-1.381-0.227-1.87-0.677c-0.48-0.452-0.719-1.046-0.719-1.778c0-0.747,0.299-1.492,0.899-2.238
		c0.598-0.753,1.415-1.405,2.44-1.964C20.66,30.853,23.595,30.103,26.665,30.103z M25.102,43.619c-0.685,0-1.284,0.281-1.791,0.845
		c-0.505,0.555-0.754,1.224-0.754,2.007c0,0.748,0.175,1.35,0.537,1.81c0.356,0.455,0.83,0.687,1.421,0.687
		c1.243,0,1.872-1.051,1.872-3.156c0-0.849-0.089-1.426-0.276-1.724C25.938,43.792,25.599,43.637,25.102,43.619z M52.953,30.128
		c0.775,0,2.049,0.17,3.806,0.515c0.357,0.064,0.66,0.091,0.889,0.091c0.266,0,0.774-0.146,1.543-0.418
		c0.354-0.141,0.654-0.213,0.903-0.213c0.722,0,1.445,0.458,2.173,1.378c0.594,0.731,1.078,1.537,1.451,2.406
		c0.371,0.874,0.557,1.624,0.557,2.26c0,0.628-0.21,1.142-0.656,1.555c-0.439,0.414-0.978,0.622-1.627,0.622
		c-0.551,0-1.032-0.134-1.462-0.403c-0.428-0.26-1.12-0.848-2.066-1.745c-0.998-0.969-1.823-1.45-2.477-1.45
		c-0.436,0-0.818,0.16-1.133,0.479c-0.317,0.318-0.477,0.699-0.477,1.131c0,0.762,0.732,1.48,2.196,2.149
		c2.624,1.183,4.643,2.475,6.047,3.875c1.182,1.18,1.773,2.632,1.773,4.344c0,2.165-0.949,3.974-2.851,5.417
		c-1.636,1.262-3.63,1.892-5.999,1.892c-0.609,0-1.715-0.101-3.316-0.303c-1.506-0.176-2.363-0.258-2.542-0.258
		c-0.207,0-0.44,0.021-0.702,0.073c-0.449,0.062-0.781,0.089-0.98,0.089c-0.731,0-1.31-0.189-1.726-0.561
		c-0.638-0.574-1.237-1.48-1.774-2.715c-0.547-1.241-0.821-2.302-0.821-3.195c0-1.43,0.558-2.146,1.681-2.146
		c0.443,0,0.836,0.148,1.201,0.438c0.367,0.284,1.139,1.049,2.306,2.294c0.634,0.687,1.165,1.157,1.583,1.411
		c0.425,0.262,0.873,0.388,1.354,0.388c0.513,0,0.93-0.136,1.236-0.408c0.317-0.272,0.467-0.631,0.467-1.083
		c0-0.702-0.598-1.341-1.795-1.915c-2.508-1.235-4.316-2.502-5.43-3.808c-1.111-1.304-1.667-2.817-1.667-4.525
		c0-1.854,0.569-3.45,1.708-4.792C47.94,31.085,50.151,30.128,52.953,30.128z M82.702,31.737v13.565c0,1.076,0.094,1.86,0.289,2.359
		c0.197,0.497,0.594,0.962,1.18,1.378c0.482,0.34,0.807,0.633,0.972,0.873c0.159,0.242,0.241,0.551,0.241,0.924
		c0,2.007-2.545,3.015-7.634,3.015c-2.737,0-4.909-0.221-6.516-0.653c-0.542-0.16-0.983-0.429-1.313-0.815
		c-0.339-0.395-0.504-0.838-0.504-1.334c0-0.416,0.086-0.749,0.25-0.979c0.176-0.237,0.612-0.611,1.313-1.124
		c0.481-0.359,0.826-0.941,1.023-1.754c0.206-0.806,0.303-2.014,0.303-3.618c0-0.515-0.028-1.473-0.103-2.88
		c-0.068-1.41-0.119-2.232-0.148-2.465c-0.098-0.639-0.53-1.13-1.309-1.467c-0.963-0.424-1.447-1.047-1.447-1.868
		c0-0.986,0.628-1.715,1.89-2.196c1.742-0.668,3.614-1.237,5.604-1.709c1.994-0.459,3.53-0.699,4.624-0.699
		C82.272,30.288,82.702,30.773,82.702,31.737z M78.078,21.508c1.352,0,2.425,0.252,3.226,0.759c0.787,0.51,1.189,1.188,1.189,2.044
		c0,1.199-0.604,2.148-1.793,2.85c-1.906,1.105-4.203,1.659-6.896,1.659c-1.138,0-2.039-0.217-2.708-0.654
		c-0.904-0.562-1.353-1.346-1.353-2.334c0-1.338,0.96-2.392,2.87-3.152C74.556,21.897,76.384,21.508,78.078,21.508z M103.95,36.244
		v7.896c0,0.928,0.231,1.691,0.69,2.287c0.462,0.585,1.048,0.884,1.762,0.884c0.604,0,1.409-0.28,2.403-0.84
		c0.235-0.14,0.472-0.212,0.703-0.212c0.369,0,0.715,0.225,1.025,0.68c0.311,0.449,0.465,0.941,0.465,1.468
		c0,0.963-0.524,1.891-1.579,2.778c-2.215,1.887-4.891,2.826-8.034,2.826c-2.488,0-4.495-0.705-6.005-2.111
		c-1.508-1.411-2.267-3.266-2.267-5.569v-10.79c0-0.356-0.038-0.578-0.125-0.663c-0.09-0.088-0.309-0.129-0.664-0.129h-2.406
		c-0.454,0-0.74-0.071-0.868-0.224c-0.125-0.148-0.181-0.492-0.181-1.034v-1.029c0.013-0.468,0.189-0.808,0.534-1.025l10.695-6.726
		c0.263-0.139,0.591-0.21,0.979-0.21h1.893c0.388,0,0.648,0.085,0.776,0.264c0.136,0.182,0.202,0.532,0.202,1.067v3.152
		c0,0.462,0.072,0.769,0.223,0.907c0.15,0.143,0.465,0.212,0.943,0.212h4.318c0.58,0,0.957,0.103,1.119,0.317
		c0.174,0.206,0.259,0.654,0.259,1.342v1.375c0,0.75-0.105,1.269-0.327,1.554c-0.214,0.29-0.613,0.43-1.188,0.43h-4.221
		c-0.439,0-0.739,0.078-0.896,0.234C104.034,35.51,103.95,35.806,103.95,36.244z M128.044,31.458v12.651
		c0,2.709,0.887,4.064,2.683,4.064c0.454,0,0.9-0.126,1.327-0.384c0.437-0.259,0.743-0.571,0.918-0.95
		c0.341-0.747,0.504-2.406,0.504-4.995c0-2.551-0.076-4.296-0.252-5.23c-0.062-0.385-0.174-0.667-0.324-0.85
		c-0.16-0.18-0.456-0.383-0.888-0.613c-0.894-0.471-1.333-1.065-1.333-1.779c0-0.965,0.762-1.635,2.293-2.01
		c2.892-0.715,5.746-1.075,8.562-1.075c1.573,0,2.356,0.833,2.356,2.501c0,0.173-0.005,0.518-0.024,1.05
		c-0.023,0.746-0.054,1.659-0.072,2.731v10.295c0,0.529,0.461,1.015,1.357,1.446c0.769,0.375,1.146,0.922,1.146,1.637
		c0,1.401-1.657,2.483-4.971,3.248c-1.951,0.451-3.832,0.675-5.649,0.675c-0.751,0-1.263-0.082-1.532-0.258
		c-0.268-0.173-0.43-0.506-0.475-1c-0.08-0.967-0.379-1.453-0.891-1.453c-0.185,0-0.363,0.045-0.517,0.129
		c-0.153,0.09-0.626,0.404-1.425,0.946c-1.572,1.075-3.262,1.614-5.064,1.614c-2.988,0-5.102-0.863-6.323-2.588
		c-1.044-1.455-1.569-3.89-1.569-7.315c0-1.274,0.009-2.367,0.029-3.268c0-0.525,0-0.883,0-1.072c0-1.341-0.124-2.325-0.366-2.955
		c-0.239-0.631-0.679-1.125-1.32-1.483c-0.611-0.312-0.993-0.561-1.156-0.748c-0.159-0.186-0.242-0.443-0.242-0.77
		c0-1.182,0.895-1.968,2.684-2.354c3.051-0.671,6.104-1.009,9.156-1.009C127.577,30.288,128.044,30.68,128.044,31.458z
		 M161.876,30.263c0.825,0,1.324,0.117,1.504,0.355c0.181,0.234,0.342,0.976,0.484,2.238c0.074,0.684,0.317,1.03,0.72,1.03
		c0.312,0,0.613-0.226,0.889-0.681c1.242-1.941,2.873-2.918,4.882-2.918c1.416,0,2.576,0.464,3.48,1.378
		c0.432,0.451,0.791,1.03,1.07,1.741c0.281,0.708,0.415,1.388,0.415,2.044c0,0.728-0.164,1.481-0.507,2.25
		c-0.347,0.773-0.791,1.407-1.336,1.905c-0.992,0.949-2.216,1.423-3.669,1.423c-0.79,0-1.461-0.14-1.991-0.423
		c-0.539-0.278-1.24-0.845-2.111-1.699c-0.321-0.332-0.628-0.492-0.906-0.492c-0.442,0-0.723,0.244-0.861,0.732
		c-0.131,0.493-0.198,1.525-0.198,3.093c0,2.354,0.085,3.958,0.262,4.814c0.112,0.463,0.259,0.787,0.453,0.968
		c0.198,0.178,0.614,0.361,1.251,0.548c1.397,0.425,2.104,1.15,2.104,2.199c0,0.635-0.233,1.192-0.679,1.662
		c-0.456,0.479-1.053,0.789-1.8,0.95c-1.495,0.308-3.693,0.468-6.586,0.468c-2.755,0-4.845-0.24-6.284-0.725
		c-1.271-0.436-1.909-1.193-1.909-2.268c0-0.808,0.461-1.53,1.4-2.171c0.447-0.293,0.764-0.562,0.932-0.801
		c0.176-0.247,0.282-0.575,0.354-0.996c0.246-1.417,0.374-4.042,0.374-7.868c0-0.699-0.082-1.206-0.235-1.503
		c-0.159-0.306-0.47-0.553-0.94-0.737c-1.103-0.437-1.649-1.069-1.649-1.89c0-0.75,0.373-1.393,1.141-1.928
		c0.768-0.542,2.039-1.072,3.828-1.602C158.155,30.647,160.191,30.28,161.876,30.263z"/>
	<path fill="#0094D9" d="M168.207,20.488c0.445,0.921,24.074-0.105,21.167,17.137c-2.905,17.235-33.6,30.119-40.383,32.842
		c-6.771,2.733-26.439,8.045-33.73,7.637c-0.814-0.083-1.01,0.562-0.634,0.759c0.391,0.188,18.663,3.015,45.477-4.231
		c26.811-7.25,55.63-23.301,59.149-44.158c2.195-12.996-22.009-13.692-29.875-13.319c-7.802,0.366-19.76,2.58-20.55,2.71
		C168.435,19.934,168.03,20.119,168.207,20.488z"/>
</g>
</svg>
