<svg xmlns="http://www.w3.org/2000/svg" viewBox="0 0 68.2 57.59"><defs><style>.d{fill:#00239c}.e{fill:#e4002b}</style></defs><g id="b"><g id="c"><g><g><path d="M23.6,30.79c-.7,0-1.3-.5-1.3-1.2,0-.6,.6-1.2,1.3-1.2,.8,0,1.3,.5,1.3,1.2s-.6,1.2-1.3,1.2" class="d"/><path d="M17.7,40.89c-1.1,0-2-.3-2.6-.6l.6-1.5s.7,.4,1.6,.4c.7,0,1.1-.4,1.1-.9,0-1.3-3-1-3.1-3.6-.1-1.5,1.2-2.6,2.9-2.6,1.5,0,2.5,.6,2.5,.6l-.5,1.4c-.3-.1-.8-.4-1.4-.4-.7,0-1.1,.4-1,.9,.1,1.1,3.2,1,3.2,3.7,0,1.4-1.2,2.6-3.3,2.6" class="d"/><path d="M28.5,40.89c-1.1,0-2-.3-2.6-.6l.6-1.5s.7,.4,1.6,.4c.7,0,1.1-.4,1.1-.9,0-1.3-3-1-3.1-3.6-.1-1.5,1.2-2.6,2.9-2.6,1.6,0,2.5,.6,2.5,.6l-.5,1.4c-.3-.1-.8-.4-1.4-.4-.7,0-1,.4-1,.9,.1,1.1,3.2,1,3.2,3.7,0,1.4-1.2,2.6-3.3,2.6" class="d"/><path d="M11.3,40.89c-1.1,0-2-.3-2.6-.6l.6-1.5s.7,.4,1.6,.4c.7,0,1.1-.4,1.1-.9,0-1.3-3-1-3.1-3.6-.1-1.5,1.2-2.6,2.9-2.6,1.5,0,2.5,.6,2.5,.6l-.5,1.4c-.3-.1-.8-.4-1.4-.4-.7,0-1.1,.4-1,.9,.1,1.1,3.2,1,3.2,3.7,.1,1.4-1.2,2.6-3.3,2.6" class="d"/><path d="M33,30.29l2.5-.6v2.5h1.5v1.6h-1.5v4.4c0,.7,.2,1,.8,1,.2,0,.5,0,.7-.1v1.5c-.2,.1-.8,.2-1.4,.2-1.8,0-2.5-1.2-2.5-2.5v-8h-.1Z" class="d"/><path d="M42.4,36.19c-1.4,.1-2.1,.7-2.1,1.9,0,1,.6,1.4,1.4,1.4,.3,0,.5-.1,.8-.2v-3.1h-.1Zm-.9,4.7c-2.4,0-3.7-.9-3.7-2.7,0-2.2,2.1-2.9,4.6-3.1v-.4c0-.9-.5-1.1-1.3-1.1-1,0-2.2,.5-2.2,.5l-.4-1.5s1.2-.6,3-.6,3.3,.8,3.3,3.1v4.9c-.7,.5-1.9,.9-3.3,.9" class="d"/><path d="M50.8,40.69v-6c0-.6-.3-1.2-1.2-1.2-.2,0-.6,.1-.8,.2v7h-2.5v-8c1-.4,2.2-.7,3.3-.7,2.7,0,3.7,1.2,3.7,2.7v6h-2.5Z" class="d"/><path d="M63.2,36.09c-.1-1.8,.3-2.6,1.3-2.6,.9,0,1.4,.7,1.4,2.2l-2.7,.4Zm1.4-4.1c-2.4,0-3.8,1.7-3.8,4.4s1.6,4.5,4.1,4.5c1.1,0,1.9-.2,2.9-.6v-1.8c-.9,.4-1.7,.7-2.6,.7-1.2,0-1.6-.6-1.8-1.9l4.8-.7c0-2.9-1.2-4.6-3.6-4.6" class="d"/><path d="M58.3,40.89c-2.2,0-3.9-1.6-3.9-4.5s1.8-4.4,3.9-4.4c1.1,0,1.9,.3,2.3,.6l-.6,1.4c-.2-.2-.6-.3-1.1-.3-1.2,0-2,1-2,2.7s.9,2.7,2,2.7c.5,0,.9-.1,1.1-.4l.6,1.5c-.4,.4-1.4,.7-2.3,.7" class="d"/><path d="M5.3,36.19c-1.4,.1-2.1,.7-2.1,1.9,0,1,.6,1.4,1.4,1.4,.3,0,.5-.1,.8-.2v-3.1h-.1Zm-.9,4.7c-2.4,0-3.7-.9-3.7-2.7,0-2.2,2.1-2.9,4.6-3.1v-.4c0-.9-.5-1.1-1.3-1.1-1,0-2.2,.5-2.2,.5l-.4-1.5s1.2-.6,3-.6,3.3,.8,3.3,3.1v4.9c-.6,.5-1.8,.9-3.3,.9" class="d"/></g><rect width="2.5" height="8.6" x="22.4" y="32.09" class="d"/><g><path d="M50.2,16.69c-2.5,0-3.7,.9-3.7,3v6h2.6v-6.1c0-.6,.3-1.1,1.2-1.2h.6l.3-1.7h-1" class="d"/><path d="M41.3,25.89c-2.5,0-3.7-.9-3.7-3.1v-5.9h2.6v6.1c0,.6,.3,1.2,1.2,1.2,.5,0,.8-.1,1.1-.2v-7.1h2.6v8.2c-1,.4-2.5,.8-3.8,.8" class="d"/><path d="M55,18.29c-1.1,0-1.4,1.4-1.4,3s.2,2.9,1.4,2.9c1.1,0,1.4-1.3,1.4-2.9s-.2-3-1.4-3m0,7.6c-2.6,0-3.9-1.9-3.9-4.6s1.3-4.6,3.9-4.6,3.9,1.9,3.9,4.6-1.3,4.6-3.9,4.6" class="d"/><path d="M63.6,18.19c-.4,0-.6,0-.8,.1v5.8c.2,.1,.4,.1,.7,.1,1.4,0,2-1.1,2-3-.1-1.9-.6-3-1.9-3m.5,7.6c-.5,0-1-.1-1.3-.1v2.9h-2.6v-11.2c.8-.4,1.8-.6,3.4-.6,2.6,0,4.3,1.5,4.3,4.5,0,2.8-1.5,4.5-3.8,4.5" class="d"/><path d="M31.3,20.89c-.1-1.8,.4-2.7,1.4-2.7,.9,0,1.4,.7,1.4,2.3l-2.8,.4Zm1.5-4.2c-2.5,0-4,1.8-4,4.5,0,3,1.6,4.6,4.3,4.6,1.2,0,2-.2,3-.6v-1.8c-1,.4-1.8,.7-2.7,.7-1.3,0-1.7-.7-1.9-1.9l5-.7c.1-3.1-1.2-4.8-3.7-4.8" class="d"/><path d="M2.5,4.69C1.5,6.09-.5,11.79,.5,17.29c.9,5.5,4.6,9.8,10.6,10.3,2.7,.3,5.1-.2,6.2-.9,0,0,.6-.4,.6-.9,0,0-6.2,.9-8.8-1.9-2.3-2.5-.6-5.5-.6-5.5,1-2,3.4-4.4,3.4-4.4,0,0,3.2-3.1,4.2-4.9,.5-.9,.8-1.8,.8-2.6,0-1.7-1.2-2.4-1.6-2.5-3.4-1.6-10.1-.3-12.8,.7" class="d"/><path d="M22.9,22.99c1-1.4,3-7.1,2-12.6C24,4.89,20.3,.59,14.3,.09c-2.7-.3-5.1,.2-6.2,.9,0,0-.6,.4-.6,.9,0,0,6.2-.9,8.8,1.9,2.3,2.5,.6,5.5,.6,5.5-1,2-3.4,4.4-3.4,4.4,0,0-3.2,3.1-4.2,4.9-.5,.9-.8,1.8-.8,2.6,0,1.7,1.2,2.4,1.6,2.5,3.4,1.6,10.1,.3,12.8-.7" class="e"/><path d="M47.2,48.59c-.2,0-.3,.1-.5,.3-.9,1.1-1.4,1.7-1.4,1.9,0,0,.1,.1,.3,.1,.3,0,.7-.2,1.1-.7,.4-.5,.6-1,.6-1.3q.1-.3-.1-.3m-2,2.6c-.1,.1-.2,.3-.3,.6-.1,.4-.1,.7-.1,.9,0,.3,.2,.5,.7,.5,.4,0,1-.3,1.5-.8,.6-.5,1-1,1.2-1.5,0,0,.4-.1,.3,.2-.3,.8-.7,1.4-1.3,1.9s-1.1,.7-1.7,.7c-.4,0-.7-.1-1-.4-.2-.3-.3-.7-.3-1.1,0-.7,.4-1.5,1.1-2.5,.7-1.1,1.4-1.6,2-1.6,.5,0,.6,.6,.6,.7,0,.4-.2,.9-.6,1.5-.4,.7-.9,1-1.5,1-.4,.1-.6-.1-.6-.1" class="e"/><path d="M66.8,48.59c-.2,0-.3,.1-.5,.3-.9,1.1-1.4,1.7-1.4,1.9,0,0,.1,.1,.3,.1,.3,0,.7-.2,1.1-.7,.4-.5,.6-1,.6-1.3,.1-.3,0-.3-.1-.3m-2,2.6c-.1,.1-.2,.3-.3,.6-.1,.4-.1,.7-.1,.9,0,.3,.2,.5,.7,.5,.4,0,1-.3,1.5-.8,.6-.5,1-1,1.2-1.5,0,0,.4-.1,.3,.2-.3,.8-.7,1.4-1.3,1.9s-1.1,.7-1.7,.7c-.4,0-.7-.1-1-.4-.2-.3-.3-.7-.3-1.1,0-.7,.4-1.5,1.1-2.5,.7-1.1,1.4-1.6,2-1.6,.2,0,.4,.1,.5,.3,.1,.1,.1,.3,.1,.4,0,.4-.2,.9-.6,1.5-.4,.7-.9,1-1.5,1-.4,.1-.6-.1-.6-.1" class="e"/><path d="M54.9,49.19c-.1,0-.2-.1-.4-.2-.2-.2-.3-.2-.5-.2-.5,0-1.1,.5-1.7,1.5-.5,.9-.8,1.6-.8,2.1,0,.6,.2,.8,.7,.8s.9-.2,1.4-.5c.4-.3,.8-.7,1.1-1.1l.1-.1c.2,0,.2,.2,.2,.3-.8,1.2-1.4,1.5-1.5,1.6-.6,.4-1,.4-1.2,.4-.5,0-.8-.2-1-.5s-.3-.6-.3-1c0-.7,.3-1.5,.9-2.4,.7-1.1,1.4-1.6,2.1-1.6,.1,0,.3,.1,.6,.2,.3,.1,.5,.3,.5,.5,.1,0,0,.2-.2,.2" class="e"/><path d="M61.9,50.09c.5-1.4,1.1-2.1,1.8-2.1,.4,0,.7,.2,.7,.6,0,.2,0,.3-.2,.3q-.1,0-.1-.1c0-.1-.1-.2-.1-.2,0-.1-.1-.1-.2-.1-.2,0-.5,.2-.8,.7-.4,.5-.7,1-.8,1.5-.2,.5-.2,1-.2,1.7v1.1c0,.2-.3,.3-.4,.3-.2,0-.4-.2-.3-.6,.1-.9,.1-1.6,.1-2.2s0-1.3-.1-2.1c0-.1,.1-.4,.4-.4,.1,0,.3,.1,.3,.2s.1,.2,.1,.3c-.2,.4-.3,.8-.2,1.1" class="e"/><path d="M43.2,48.19c-.1-.2-.2-.4-.5-.4-.2,0-.4,.2-.4,.3-.1,.1,0,.3,.1,.4,.1,.1,.3,0,.4-.1,.3,.4,.3,1.5,.3,1.9,0,.9-.2,1.7-.5,2.2-.3,.6-.6,.8-.9,.8,0,0-.6,0-.9-.7-.2-.3-.2-.8-.2-1.4,0-.7,.1-1.4,.2-2.2,.1-.4-.4-.3-.4-.3-.1,0-.2,.2-.3,.5s-.2,.6-.2,.8c-.2,.6-.4,1.2-.7,1.8-.4,.9-.8,1.4-1,1.4-.1,0-.2-.3-.1-.8,0-.5,.2-1.5,.4-2.8,.1-.4-.1-.5-.3-.5s-.4,.4-.5,1.1c-.1,.8-.1,1.5-.2,2,0,.3,0,.6,.1,.9,.1,.5,.3,.7,.6,.7,.4,0,.8-.6,1.3-1.7,.2-.6,.4-1.1,.6-1.5-.1,1.1,0,1.7,.2,2.2,.4,.9,1.2,1.1,1.4,1.1,.6,0,1-.5,1.3-1.1s.5-1.5,.5-2.5c.1-.4,0-1.6-.3-2.1" class="e"/><path d="M60.2,52.39c-.2,0-.3,.1-.3,.3s-.3,.2-.3,.2c-.2-.1-.3-.3-.3-.8,0-.2,.1-.9,.3-2.1,.1-.3-.1-.4-.3-.4s-.2,0-.3,.2-.1,.7-.2,1.2c-.6,.9-1.1,1.5-1.4,1.8-.4,.4-.6,.5-.7,.5s-.2-.5-.2-.7c0-.9,.3-2.3,.6-2.9,.4-.7,.8-.9,1.1-.9s.6,.2,.6,.5c0,.1,.2,.3,.3,.2,.1,0,.3-.2,.2-.3h0c-.1-.6-.6-1-1.2-1s-1.2,.4-1.6,1.2c-.4,.7-.7,2.1-.7,3.1,0,.3,0,.6,.1,.8s.3,.5,.6,.5h0c.4,0,.7-.2,1.1-.6,.3-.3,.6-.7,1-1.2,0,.7,.3,1,.6,1.2,.1,0,.8,.3,1-.5,.1,0,.2-.3,0-.3" class="e"/><path d="M8.6,49.79c-.7,.9-1,1.8-1,2.5,0,.3,0,.9,.4,.9s.9-.4,1.4-1.4c.4-.8,.6-1.5,.6-1.9,0-.9-.3-1-.4-1-.2,0-.5,.1-.8,.4,.1,.1,0,.3-.2,.5m-1.8,2.6h0c0-.7,.2-1.5,.5-2.3s.7-1.4,1.2-1.3c.1-.2,.3-.3,.5-.4,.3-.1,.5-.2,.6-.2,1.3,0,1.3,1.8,1.3,1.8,0,.5-.3,1.3-.7,2.2-.6,1-1.2,1.6-2,1.7,0,0-1.3,.2-1.4-1.5" class="d"/><path d="M11.3,52.49h0c0-.3,.1-.9,.4-2,.1-.6,.3-1.1,.4-1.4,.1-.3,.2-.5,.5-.5,.1,0,.6,.1,.5,.4,0,.1-.2,.5-.2,.5-.6,1.5-.8,2.6-.8,3.2,0,.3,0,.4,.1,.4s.3-.2,.6-.6c.4-.4,.7-1,1.1-1.7,.4-.8,.6-1.4,.6-1.7,0-.2,.1-.7,.6-.7,.4,0,.5,.3,.5,.5,0,.1,0,.3-.1,.7s-.1,.8-.1,1.1c0,.7,.1,1.2,.2,1.5s.2,.4,.4,.4c0,0,.1,0,.2-.1s.1-.1,.3-.2h.2c.1,.1,.2,.2,.2,.3,0,.2-.2,.4-.4,.5-.2,.1-.3,.2-.5,.2-.4,0-.7-.2-.9-.6-.2-.3-.3-.8-.4-1.4-.4,.7-.6,1.2-.7,1.4-.8,1.3-1.6,1.2-1.6,1.2-.6,0-1.1-.2-1.1-1.4" class="d"/><path d="M23.9,53.09c-.1,.2-.2,.2-.2,.2,0,0-.2,.1-.4-.5-.1-.3-.4-1.2,.1-3,0,0,.2-.5,.2-.7,0-.4-.3-.5-.4-.5-.2,0-.4,.2-.5,.4-.3,.8-.4,2.1-.4,2.5s.1,.9,.2,1.4c.2,.7,.6,1.1,1.1,1.1,.1,0,.7-.1,.7-.6-.1-.5-.4-.4-.4-.3m-.1-5.8h0c.2,0,.3,0,.4-.1,.1-.1,.3-.4,0-.7s-.6-.1-.7,0c-.2,.3-.1,.6,0,.7,0,.1,.1,.1,.3,.1" class="d"/><path d="M31.6,49.99c.8-1,.5-1.5,.5-1.5-.1,0-.3,.1-.5,.3-.6,.6-1.2,1.3-1.3,1.8,0,0,.6,.4,1.3-.6m-2.4,3.3c-.4-.5-.3-1.2-.3-1.2,0-.7,.4-1.6,1.1-2.6,.7-1.1,1.4-1.6,2.1-1.6,.2,0,.5,.1,.6,.3s.1,.3,.1,.5c0,.5-.2,1-.6,1.6-.4,.7-1,1.1-1.6,1.1-.2,0-.4,0-.6-.1,0,.1-.1,.3-.2,.5-.1,.4-.1,.7-.1,.9,0,.3,.1,.4,.6,.4,.4,0,.9-.2,1.5-.7s.9-1,1.2-1.5l.1-.1s.6-.1,.4,.4c-.3,.8-.7,1.4-1.3,1.9s-1.2,.7-1.8,.7h0c-.6,0-.9-.2-1.2-.5" class="d"/><path d="M5.9,50.49c-.1-.6-.3-2-.3-2,0-.5-.2-.8-.6-.8s-.5,.3-.5,.5v1.3c0,1.3-.1,2.1-.4,2.6-.2,.5-.4,.6-.8,.6s-.7-.2-1-.6c-.2-.4-.4-.9-.4-1.5,0-.7,.2-1.5,.6-2.1,.1-.2,.1-.4-.1-.5s-.4-.1-.5,.1h0c-.5,.8-.7,1.7-.7,2.5,0,.7,.2,1.4,.5,2,.3,.5,.9,.9,1.6,.9,0,0,1,0,1.5-1.1,.1-.3,.2-.6,.3-1v.9c0,1.1-.2,2.1-.7,3-.5,1-1.1,1.5-1.9,1.5-.1,0-.5,0-1.1-.4-.5-.4-.6-1.1-.7-1.2,0-.2-.2-.3-.3-.3-.3,0-.4,.3-.4,.4,0,.4,.2,.9,.7,1.4,.5,.6,1.1,.9,1.8,.9h0c1.2,0,2.1-.8,2.7-2.2,.4-1,.7-2,.7-3.1,.2-1.1,.1-1.7,0-1.8" class="d"/><path d="M28.9,48.49c-.2-.1-.4,0-.6,.1-.3,.3-.6,.7-.9,1.2-.2,.3-1,2.5-1,2.5,0-.1-.5-1.3-.8-2.2q-.2-.5-.3-.8c-.3-.6-.6-.4-.7-.3-.3,.2-.2,.5-.2,.5,1.1,1.8,1.3,3,1.4,3.4,.1,.3,.2,.5,.3,.6s.2,.2,.3,.2c.2,0,.2-.1,.3-.3,.1-.1,.2-.4,.3-.6,.3-.8,.7-1.6,1-2.3,.3-.6,.5-1,.7-1.2l.3-.3c0-.1,.1-.4-.1-.5" class="d"/><path d="M20.1,53.49c-.4-.5-.6-1.4-.7-3,0-1.4,.2-3.2,.8-5.7h0c.1-.2,.3-.3,.5-.3,.2,.1,.3,.3,.3,.5-.6,2.4-.8,4.2-.8,5.4,0,1.5,.3,2.3,.5,2.4,.1,.1,.2,.2,.7,0,.2-.2,.5-.1,.6,.1,.1,.2,.1,.4-.1,.6-.1,0-.5,.3-.8,.3-.2,.1-.6,.2-1-.3" class="d"/></g></g></g></g></svg>