<svg xmlns="http://www.w3.org/2000/svg" width="180" height="180" fill="none" viewBox="0 0 180 180"><g clip-path="url(#clip0_7312_901)"><rect width="180" height="180" fill="#FFCF00"/><path fill="#FFCF00" d="M180 0H0V180H180V0Z"/><path fill="#1A1A1A" d="M167.854 71.9399C165.124 73.0541 162.393 73.6775 159.784 73.6775C151.592 73.6775 146.876 67.7201 146.876 56.9193C146.876 46.9901 151.84 40.161 159.166 40.161C161.775 40.161 164.131 40.6574 166.988 41.8986L167.485 30.3531C164.131 29.2332 160.782 28.6155 157.428 28.6155C144.024 28.6155 134.343 40.5304 134.343 56.9135C134.343 73.793 144.024 85.2115 158.173 85.2115C161.648 85.2115 165.002 84.5938 168.351 83.4739L167.854 71.9399Z"/><path fill="#1A1A1A" d="M124.426 73.6775C116.234 73.6775 111.518 67.7201 111.518 56.9193C111.518 46.9901 116.483 40.161 123.808 40.161C126.417 40.161 128.773 40.6574 131.63 41.8986L132.127 30.3531C128.773 29.2332 125.425 28.6155 122.071 28.6155C108.666 28.6155 98.9854 40.5304 98.9854 56.9135C98.9854 73.793 108.666 85.2115 122.815 85.2115C126.29 85.2115 129.644 84.588 132.993 83.4739L132.496 71.9284C129.76 73.0599 127.029 73.6775 124.426 73.6775Z"/><path fill="#1A1A1A" d="M40.6632 61.3589C46.384 58.5996 49.7842 53.3117 49.7842 46.6846C49.7842 36.6285 41.8409 29.5569 30.5436 29.5569H13.4216V84.2941H25.5848V64.1876H29.1408L37.2573 84.2941H50.4134L40.6632 61.3589ZM25.5848 40.3519H31.1728C35.1445 40.3519 37.5055 42.8342 37.5055 46.9329C37.5055 50.9045 35.2715 53.635 31.1728 53.635H25.5848V40.3519Z"/><path fill="#1A1A1A" d="M83.1854 29.5508H67.1718L52.8958 84.288H65.5554L68.0665 73.2389H82.5619L84.9172 84.288H98.0733L83.1854 29.5508ZM70.3814 63.0673L73.6257 48.7913L75.2421 40.5998H75.7385L77.3549 48.7913L80.3971 63.0673H70.3814Z"/></g><defs><clipPath id="clip0_7312_901"><rect width="180" height="180" fill="#fff"/></clipPath></defs></svg>