<svg width="872" height="872" viewBox="0 0 872 872" fill="none" xmlns="http://www.w3.org/2000/svg"> <circle cx="436" cy="436" r="436" fill="#FFF100"/> <circle cx="436" cy="436" r="436" fill="black"/> <circle cx="436" cy="436" r="408" fill="#FFF100"/> <path d="M624 377.65C624 339.861 654.294 308 692 308C729.706 308 760 339.994 760 379.225L760 392H720L720 379.225C720 362.22 708.025 348 692 348C675.975 348 664 361.905 664 377.65V487.35C664 503.41 676.289 516 692 516C707.711 516 720 503.095 720 487.35V472H696.028V432H760V487.35C760 525.139 729.706 556 692 556C654.294 556 624 525.139 624 487.35V377.65Z" fill="black"/> <path d="M524 308C561.517 308 592 339.785 592 377.482V552H552V472H496V552H456L456 377.482C456 339.785 486.483 308 524 308ZM496 432H552V377.168C552 361.461 539.632 348.314 524 348C508.368 348 496 361.147 496 377.168V432Z" fill="black"/> <path fill-rule="evenodd" clip-rule="evenodd" d="M428 392C428 344.891 387.433 312 349.978 312H288L288 552H328V472.033H349.867C352.555 472.033 357.336 472.033 359.734 471.554L387.998 552.001L432 552L397 456C416.042 441.732 428 418.925 428 392ZM349.978 432.05H328V352.008H349.978C370.741 352.008 388 370.603 388 392C388 413.397 371.051 432.05 349.978 432.05Z" fill="black"/> <path d="M188 308C225.517 308 256 339.785 256 377.482V552H216V472H160V552H120L120 377.482C120 339.785 150.483 308 188 308ZM160 432H216V377.168C216 361.461 203.632 348.314 188 348C172.368 348 160 361.147 160 377.168V432Z" fill="black"/> </svg>